<svg xmlns="http://www.w3.org/2000/svg" viewBox="0 0 538.58 170.08"><defs><style>.cls-1{fill:#788386;}.cls-2{fill:#9e0b0f;}</style></defs><title>liga-ac</title><g id="Layer_2" data-name="Layer 2"><g id="LogosCanvas"><g id="WhiteBackgroundVersion"><g id="V1"><g id="SymbolicElement"><g id="Element2"><path class="cls-1" d="M70.83,118.61c-8.55,3.55-29.35,13.1-54.45,15.59-10.5,1.05-16.48-8.06,2.35-28.45C8,115-11.87,134.48,9.47,138c9.42,1.55,23.79-.82,36.52-4.63A244.25,244.25,0,0,0,82.3,119.15c-3.21-1.37-6.47-2.8-6.47-2.8-1,.48-3.86,1.78-5,2.26"/><path class="cls-1" d="M173.15,90a118.63,118.63,0,0,0-3.25-15.45c-1.27-4.67-2.29-7.53-2.51-8.21-9.07,10.14-19.37,21.15-43,36.74a125.35,125.35,0,0,1,1,15.91c4.12,1.18,11,3,11,3s5.33-27.76,20.25-32.55c11.67-3.74,16.09,19.53,16,35.13,2.57-12.88,2.12-22.81.5-34.55"/><path class="cls-1" d="M174.14,42.19c-2.3,6.17-6.37,9.94-10.73,14a155.48,155.48,0,0,0-8.49-16.43A117.16,117.16,0,0,0,145.2,26a86.75,86.75,0,0,0-13.85-13.51A55.27,55.27,0,0,0,116.48,4.1c25.84,20.65,25.84,39,19.06,44.31-3.65,2.87-10.38,3.25-15.55.14-4.88-2.94-9.64-7.85-13.79-11.23-6.43-5.24-14.4-13-28-16.72,14.76,9.78,25.41,24.91,30.57,35.12a174.29,174.29,0,0,1,8.14,17.85,134,134,0,0,1,4.86,16.07c-2.29,1.6-5.19,3.62-8.49,5.79-6,3.95-13.11,8.23-20.38,12.19,1.24.52,5.55,2.26,6.57,2.66,16.79-9.34,35.62-21.53,52.65-37.63,16-15.14,21.1-26.22,22-30.46"/><path class="cls-1" d="M118,151.8l2.56,1.46c4.26-5,8.63-11.6,10.52-16.5-1.15-.35-4.6-1.36-7.14-2.18-1,3.73-2.23,10.14-5.94,17.22"/><path class="cls-1" d="M130.81,31.22c0-3.36-2.57-8.67-8.65-8.67-6.55,0-8.5,6.88-8.5,9.45s2.5,8.2,8.18,8.2c6.88,0,9-5.62,9-9"/></g><g id="Element1"><path class="cls-2" d="M184.66,100.93s5,4.58,10.46,14.23c4.14,7.38,4.63,11.92-6.5,14.24-11.6,2.41-24.87-.19-32.56-1.19-6.16-.8-30.13-7.08-38.28-9.55a346.63,346.63,0,0,1-36-13.74c-6-3.46-11.1-16.39-13.55-31s-2.59-27.79-.13-38.58c1.25-5.49,3.07-11.48,5.17-15C79.34,9.85,87.28.19,105.36,1A35.91,35.91,0,0,0,81.62,3.44c-5.61,2.69-10.3,7-15.06,14.75-4.27,6.94-9.48,17.11-11.43,42.37-.31,4.06-.94,8.39-3.26,10.7C49.17,74,44.1,74,44.1,74a13.58,13.58,0,0,1-9.76-3.63C28.42,65,28.64,48.61,30,39.25A33.9,33.9,0,0,1,37.84,21.3C44,13.78,51,13.14,52.41,13.08c-26.8-.17-36.9,31-35,57.59C9.14,65.16.7,57.7.74,50.24c-3.5,7.19,6.19,17.19,11.71,21.47,8.82,6.84,32.36,22.52,43.41,28a524.06,524.06,0,0,0,66.82,27.72c6.75,2.28,62.51,19.83,83.54,9,17.88-9.2-21.56-35.55-21.56-35.55"/><path class="cls-2" d="M72.28,115.56c-1.31-.56-6.55-3.07-11.5-5.44-3.7-1.77-13.16-6.69-22.15-11.86C29,92.72,19.18,85.46,19.18,85.46a140.58,140.58,0,0,0,11.2,34.78c2.28,5,4.49,9.27,4.49,9.27,6.08-1.45,8.64-2.22,17.79-5.6s15.48-6.43,19.62-8.35"/><path class="cls-2" d="M62,134.44c-4.92,1.88-12.42,4.05-19.63,6,12.91,17.73,26.51,25.33,34.11,27.73,10.85,3.42,21,2.64,30.49-5.1-25,12.44-43.95-4.79-45-28.61"/><path class="cls-2" d="M126.67,157.67c-8.83-3-15.94-7.93-22.76-14.23-7.24-6.7-11.74-12.72-16.61-20-5.1,2.46-10.45,4.87-16.41,7.45,0,0,9,13.83,29.07,24.27s44.46,14.82,57.9-3.54c-10.86,9.63-23.84,8.48-31.19,6"/><path class="cls-2" d="M33.9,52.32c.11,5.82,4,9.28,8.5,9.31a8.34,8.34,0,0,0,8.54-8.69c0-5.41-3.42-9.57-8.54-9.65a8.59,8.59,0,0,0-8.5,9"/></g></g><g id="TextElement"><path class="cls-1" d="M531.59,80.29c-7.64,18.32-21.31,32.26-41.31,26.27s-15-39-3.87-50.79c10-10.65,30-25.87,46.48-23.37,2.88.45,7.76,4.53,4.74,5.84S503.53,40.15,492,72.85c-4,11.38,1.25,20.65,11.52,20.29,12.09-.44,28.46-13.82,28.06-12.85"/><path class="cls-1" d="M469.13,81.16c-3.46-4.75-7.78-15.91,2.44-18.83,3-5.6-2-11.09-12.67-9.34-5.46.89-1.3-19-10.21-19.13-5.45,1.75-15.91,16.51-26.79,30.08-9.26,11.58-20.13,23.21-21.29,25.51-1.51,3.22-2.71,13.56-.29,18.51,2,4.15,8.64,3.43,17.13-6.21,4.65-5.27.73-9.93,6.19-17.51,4.13-5.75,6.66-7.56,8.64-8.92,5.23-3.59,11.2-4.33,12.37-2.47,9.51,14.74,6.05,37.22,24.48,37.22,14.68,0,1.6-26.69,0-28.91m-35.85-12.4c-3.66.62-3.44-4.14-.57-8.34,3.72-5.43,8.36-11.19,10.07-12,3,0,5.91,17.66-9.5,20.29"/><path class="cls-2" d="M390.54,84.38c.28-9.49-1.87-28.24-17.29-23.07C352,68.45,344,93.68,349.09,102.18c2,3.37,14,12.8,25.47-7,4.7,13.07,6.48,23.36,13.53,23.07s9.21-15.32,2.45-33.86m-27.06,10.8c-7.92.74-11.27-9.59-.87-19.41s20.41-7.75,20-.14c-.57,10.94-11.27,18.83-19.14,19.55"/><path class="cls-2" d="M323.89,60.13c-17.49,8.69-22,27.9-15,34.76,6.25,6.07,19-1,19-1-10.79,24.38-11.36,47.87,4.32,47.87,15.89,0,9.79-25.85,8.49-34.14-3.17-20.41.43-21,5.48-31.68,2.21-4.68-1.73-26-22.32-15.78m-2.74,28.48c-7.92.73-11.26-9.6-.86-19.42s20.41-7.73,20-.15c-.58,11-11.27,18.84-19.15,19.57"/><path class="cls-2" d="M291.37,107.44c8.2,1.46,12.11-5.68,11.8-8.76-.48-4.74-2-25.83,1.87-34.74-12.52.87-30.24,40.54-13.67,43.5"/><path class="cls-2" d="M307.2,37.66C301.64,35.19,297,52,307.2,55.9c6.07,2.35,10-13.82,0-18.24"/><path class="cls-2" d="M264.88,31.82c-7.15,11-26.48,40.87-29.5,45.4s-17.76,24.48,0,30.37c6.18,2,28.21,2.48,46.06,2.62.11-.65,6.47-14.59-18.86-15-8.22-.14-15.26-8.8-7.48-29.48,1.74-4.64,11.66-23.35,13.81-30.37.52-1.68,1.75-12.36-4-3.5"/></g></g></g></g></g></svg>